<svg version="1.1" id="layer1" xmlns="http://www.w3.org/2000/svg" x="0" y="0" viewBox="0 0 450 450" xml:space="preserve"><style>.st0{fill:#3f7027}.st1{fill:#639632}</style><path class="st0" d="M328.06 333.28c5.64-4.16 12.26-11.91 18.93-14.27 9.21-3.27-5.09 9.36-6.61 11.21 2.91 6.49 10.13-3.48 13.48-4.84 4.07-1.65 8.15-.63 5.14 4.06-2.52 3.95-8.22 5.07-12.34 6.86-2.41 1.03-7.97 3.24-5.62 6.06 2.38 2.84 7.58-.27 9.72-1.57 4.04-2.47 12.46-11.08 12.45-1.66 3.21.58 5-4.29 7.86-1.09 2.71 3.05-3.41 5.51-.9 7.64 2.35 2.01 7.41-3.26 9.46.78 1.64 3.22-4.45 3.52-6.41 5.85 3.57.9 7.05-1.25 10.79-.92 3.06.27 5.59 2.03 7.66 3.75-1.62 2.93-6.23 4.87-9.56 5.37-2.33.35-9.78-2.32-8.63 1.58.46 1.54 9.34 4.71 2.77 6.84-4.63 1.5-10.97-4.71-14.42-6.76-2.16-1.29-9.69-6.21-12.47-4.86-4.03 1.96 3.21 5.57 3.9 8.02 2.58 9.09-15.53-3.84-18.01-4.98-2.27-1.08-9.94-4.27-10.33-.6-.35 3.27 8.13 7.28 10.45 8.52 2.14 1.13 9.96 4.88 3.27 6.38-1.79.4-10.32-4.81-7.5.77.61 1.17 8.48 6.08 1.23 6.03-3.25-.03-5.82-4.69-8.88-5.66-6.38-2.01-2.13 2.96-4.5 5.43-2.61 2.74-6.01-2.05-7.5-4.11-5.32-7.36-9.64-17.22-18.83-20.8-8.3-3.22-26.55-5.67-28.86-4.1 4.92-6.38 8.22-2.9 13.43-2.62 6.11.33 12.15-.08 18.13-1.35 11.9-2.47 23.07-7.87 32.7-14.96z"/><path class="st0" d="M271.15 323.56c4.73-6.31 11.66-9.8 18.18-14.12 5.98-3.94 12.56-7.11 18.52-11.03 2.87-1.9 11.73-9 3.14-9.88-2.36-.23-9.38 3.5-7.02-1.15 1.6-3.17 6.46-4.88 7.44-8.52 1.43-5.32-4.3-3.63-6.51-1.27-2.72 2.89-4.68 7.64-8.44 9.33-2.23-5.48-6.81 4.67-8.61 7.05-3.67 4.83-6.44 10.29-10.66 14.81-4.28-6.77 9.54-19.24 13.79-23.96 4.09-4.52 11.54-10.21 12.42-16.59.66-4.73-3.04-1.28-4.83-3.31-1.32-1.48.86-4.9-2.17-6.05-3.14-1.21-6.38 3.2-8.15 4.93-2.12 2.1-4.19 3.86-6.92 5.28-3.15-2.04 1.61-7.66 3.1-9.45 2.04-2.45 3.79-4.36 3.18-7.54-.68-3.51-1.21-3.78-4.46-3.01-2.89.69-3.45-.32-3.13-3.46.13-1.26 1.21-1.74.36-3.03-1.07-1.62-1.91-.36-3.22-.75-3.09-.92-1.68-3.4-2.9-5.93-3.35-6.94-9.18 3.33-9.99 6.64-.7 2.85.82 7.04-.38 9.56-2.38 5.03-4.43-1.91-6.2-2.18-4.61-.7 2.53 16.68-.06 19.12-.99-.67-2.1-1.39-2.8-2.34-.79-1.03-.72-3.12-2.09-3.69-3.36-1.41-3.65 4.83-3.6 6.8.13 7.78 3.76 15.2 5.84 22.63 1.36 4.86 4.39 10.65 4.64 15.67.18 3.24-2.09 2.63-4.14.46-3.51-3.66-6.98-8.39-9.87-12.51-2.02-2.87-7.79-13.99-12.36-11.69-2.19 1.11-2.81 5.3-2.76 7.47.08 3.29 2.56 6.3 3.02 9.57-1.94.59-5.05 1.52-3.54 3.87 1.24 1.94 6.23 2.88 8.31 3.65 7.69 2.81 14.07 5.59 20.66 10.63 5.56 4.26 5.64 8.46 5.39 15.1-.06 1.59-2.07 15.25-.03 15.74.08.03.14.05.21.08 1.63.66 2.82-4.89 2.85-5.61.14-2.39.3-4.72.31-7.13.01-4.99.34-10 3.48-14.19z"/><path class="st1" d="M395.49 265.43c-4.15-2.34-10.94 3.2-14.96 1.09-5.78-3.03 3.45-5.61 6.12-5.95 3.23-.42 8.46-.29 9.47-3.52 1.88-6.02-3.84-3.11-6.57-3.39-9.17-.98 1.32-11.01 3.29-13.36 2.15-2.56 2.88-4.96 2.4-8.31-5.57-1.75-7.88-1.52-10.3 3.57-1.33 2.82-4 9.39-8.17 5.41-1.51-1.44-.2-4.04-1.89-4.78-2.11-.92-4.98 2.98-6.08 4.28-3.12 3.71-5.19 11.71-9.78 13.69-5.19-2.68.71-8.5-.98-11.79-2.02-3.98-10.27 4.44-12.17 6.42-7.7 7.99-8.31 20.31-13.35 29.79-1.47 2.78-9.98 20.19-12.68 12.4-1.98-5.68 3.6-13.97 6.02-18.78 1.41-2.8 2.55-5.95 4.35-8.54 1.4-1.99 3.7-3.81 4.64-6.07 1.94-4.73-.19-20.14-6.44-10.66-3.4 5.17-.89 2.28-4.88-.77-3.97-3.03-6.85 1.21-6.23 4.96.42 2.63 1.68 4.67 1.85 7.38.18 2.8 0 5.89-.34 8.64-.47 3.83-3.3 11.07-7.24 5.06-1.91-2.91-1.5-14.58-6.68-14.43-5.7.17-.23 10.67-.08 13.19.61 9.5 1.34 20.18.34 29.51-.32 3.01-.04 6.06-1.27 8.9-1.47 3.4-4.45 5.99-6.79 8.88-.24.29-.49.56-.73.85l-.02-.05c-10.25 13.18-63.54 57.82-103.78 74.47l1.3 2.91c37.11-15.37 84.1-53.42 100.02-70.19 1.64-1.16 3.29-2.29 4.97-3.32 6.95-4.29 16.18-9.91 24.66-10.45 8.15-.52 15.39 4.77 23.16 6.21 2.95.54 6.64 1.48 9.65 1.04 6.12-.9 1.27-3.97-1.78-5.88-5.3-3.33-2.14-4.34 2.74-4.51 4.53-.15 6.19.62 9.91 2.6 1.66.89 8.74 3.9 8.96.03.22-3.79-9.2-4.49-8.67-8.74.73-6 19.98 3.36 24.52-3.08 6.84-9.73-20.51-6.62-22.14-9.08-2-3.02 4.45-4.73-.79-6.95-4.13-1.75-9.63 3.14-13.15 4.56-5.62 2.28-10.86 4.29-16.05 7.36-2.12 1.26-6.43 4.19-7.99 1.44-4.94-8.75 24.91-15.02 29.31-15.6 5.53-.72 11.03-1.52 16.5-2.56 3.81-.72 5.9-1.73 2.17-4.79 1.85-.55 3.65.4 5.62.3 2.37-.1 5.47-.99 7.66-1.85 3.14-1.25 6.68-5.11 2.35-7.54z"/><path class="st0" d="M118.92 286.79c-2.69-6.33-4.32-16.22-8.82-21.5-6.22-7.28-.52 10.54-.19 12.88-5.93 4.18-6.9-7.92-9.11-10.71-2.64-3.4-6.69-4.5-6.56 1.02.11 4.63 4.43 8.34 7.04 11.9 1.53 2.06 5.17 6.65 1.65 7.94-3.55 1.3-6.41-3.91-7.56-6.06-2.21-4.09-4.93-15.59-9.89-7.47-3.07-1.06-2.05-6.13-6.2-4.75-3.94 1.32.05 6.41-3.25 7.04-3.08.58-4.65-6.41-8.57-3.92-3.1 1.97 1.99 5.2 2.45 8.15-3.56-.95-5.43-4.5-8.84-6.03-2.78-1.24-5.89-.96-8.59-.47-.14 3.3 2.81 7.22 5.42 9.26 1.83 1.43 9.65 2.75 6.61 5.55-1.2 1.09-10.52-.46-5.97 4.56 3.2 3.55 11.94 1.26 15.99 1.16 2.55-.06 11.63-.66 13.33 1.87 2.45 3.64-5.71 3.24-7.59 5.01-7.02 6.6 15.42 4.23 18.17 4.43 2.52.18 10.82 1.15 9.22 4.5-1.41 3-10.85 2.36-13.49 2.29-2.45-.07-11.17-.64-6.19 3.92 1.34 1.22 11.45.86 6.07 4.32-1.13.71-10.53 1.13-4.25 4.59 2.82 1.55 7.51-1.22 10.66-.57 6.57 1.35.28 3.58 1.02 6.86.82 3.62 6.26 1.16 8.66.09 8.45-3.76 17.38-10.18 27.18-8.82 8.85 1.26 25.92 7.99 27.08 10.47-.89-7.9-5.58-6.5-10.22-8.78-5.45-2.67-10.43-5.96-14.94-9.95-8.93-7.93-15.73-18.01-20.32-28.78z"/><path class="st0" d="M169.98 305.6c-1.14-7.7-5.56-13.89-9.24-20.61-3.38-6.18-7.67-11.91-11.03-18.06-1.62-2.96-6.01-13.21 2.01-10.15 2.23.85 6.61 7.3 6.78 2.12.12-3.52-3.35-7.19-2.44-10.87 1.3-5.35 5.56-1.3 6.38 1.78.99 3.78.43 8.85 2.92 12.03 4.65-3.85 3.77 7.18 4.22 10.09.89 5.92.68 11.98 2.22 17.86 7.08-4.08.91-21.29-.57-27.36-1.41-5.82-5.25-14.2-2.94-20.24 1.72-4.48 3.32.23 5.89-.74 1.9-.73 1.63-4.72 4.86-4.4 3.37.34 4.09 5.68 4.81 8 .87 2.81 1.85 5.3 3.56 7.77 3.79-.39 2.28-7.5 1.85-9.75-.62-3.07-1.24-5.55.85-8.09 2.3-2.79 2.92-2.81 5.4-.68 2.23 1.91 3.22 1.26 4.46-1.65.48-1.18-.24-2.08 1.14-2.84 1.72-.95 1.87.54 3.23.78 3.17.58 3.12-2.26 5.43-3.95 6.33-4.65 6.51 7.06 5.62 10.33-.75 2.85-4.14 5.87-4.31 8.64-.33 5.51 4.84.29 6.54.84 4.42 1.45-10.33 13.63-9.24 16.94 1.21-.16 2.54-.29 3.62-.81 1.21-.57 2.14-2.43 3.65-2.33 3.64.26.87 5.9-.13 7.63-3.89 6.82-10.7 11.77-16.15 17.41-3.56 3.69-9.06 7.46-11.72 11.8-1.71 2.78.57 3.26 3.46 2.27 4.87-1.69 10.23-4.31 14.8-6.66 3.17-1.65 13.68-8.9 16.6-4.82 1.39 1.96-.08 5.95-1.18 7.83-1.68 2.88-5.32 4.44-7.32 7.12 1.42 1.4 3.73 3.61 1.25 5.01-2.03 1.16-6.9-.24-9.12-.5-8.15-.95-15.16-1.35-23.43.17-6.98 1.27-9.09 4.95-12.08 10.94-.73 1.45-5.59 14.43-7.63 13.95-.08-.02-.14-.02-.21-.02-1.75-.15-.12-5.59.2-6.23 1.04-2.17 2.02-4.31 3.19-6.44 2.41-4.42 4.54-9 3.8-14.11z"/><path class="st1" d="M153.07 303.13c-1.41-5-2.79-9.98-3.71-15.14-.65-3.6-2-7.25-1.61-10.91.33-3.06 2.08-5.61 3.28-8.41 3.73-8.69 9.63-17.76 14.86-25.84 1.38-2.14 11.38-8.9 6.43-11.65-4.47-2.49-9.87 7.98-13 9.66-6.42 3.5-5.34-4.17-3.87-7.75 1.06-2.56 2.43-5.37 3.97-7.76 1.49-2.3 3.6-3.52 5.27-5.65 2.39-3.02 1.96-8.08-3.04-7.22-5.03.87-4.23 4.57-4.67-1.53-.82-11.2-10.31 1.4-10.93 6.44-.3 2.42.85 5.07 1.09 7.47.3 3.1-.25 6.39-.4 9.5-.25 5.33.58 15.18-3.96 19.28-6.24 5.62-5.13-13.58-5.05-16.7.23-10.64 5.78-21.76 2.95-32.31-.7-2.6-3.81-13.77-7.56-11.19-3.11 2.13-.79 9.93-6.68 9.93-3.07-3.83-.94-11.81-1.86-16.49-.32-1.64-.92-6.39-3.24-6.55-1.85-.12-1.98 2.79-4.02 3.35-5.63 1.62-4.74-5.39-4.52-8.47.37-5.57-1.55-6.84-7.31-7.83-2.1 2.73-2.61 5.18-1.99 8.41.58 2.97 4.87 16.57-3.69 13.26-2.55-1-6.15-6.16-7.46-.01-.71 3.3 3.96 5.57 6.6 7.41 2.18 1.5 9.04 7.98 2.45 8.03-4.58.03-7.83-7.94-12.65-7.77-5.01.16-3.79 5.18-1.62 7.73 1.5 1.74 3.79 3.94 5.82 5.11 1.7.97 3.76.97 5.11 2.29-4.81 1-3.45 2.85-.45 5.21 4.3 3.41 8.75 6.61 13.26 9.77 3.59 2.52 26.77 21.62 18.11 27.06-2.74 1.73-5.07-2.82-6.32-4.91-3.05-5.07-6.67-9.22-10.5-13.78-2.4-2.85-4.83-9.67-9.33-10-5.7-.44-.87 4.01-4.14 5.76-2.63 1.42-25.19-13.76-23.97-2.07.82 7.73 22.38 8.26 20.07 13.87-1.65 3.97-10.28.31-11.95 3.74-1.71 3.52 6 4.08 7.91 4.05 4.25-.05 6.09.03 10 2.22 4.22 2.37 6.5 4.7.18 5.23-3.64.29-9.41.79-4.48 4.36 2.44 1.76 6.14 2.6 9.02 3.46 7.55 2.27 16.53.9 23.45 5.07 7.07 4.26 12.33 13.1 16.31 19.99.99 2.8 2 5.6 2.98 8.38 11.94 33.85 23.22 65.82 45.62 95.61l2.66-1.85c-21.01-27.95-32.17-58.06-43.42-89.86z"/><g><path class="st0" d="M294.96 167.47c2.58-8.48 3.54-21.36 8.39-28.75 6.67-10.2 1.66 13.41 1.49 16.42 7.47 4.49 7.44-11.11 9.76-15.01 2.81-4.72 7.52-6.72 7.93.34.34 5.94-4.44 11.32-7.22 16.23-1.62 2.86-5.49 9.24-1.18 10.4 4.35 1.15 7.23-5.92 8.4-8.83 2.2-5.55 4.32-20.66 11.02-10.99 3.57-1.8 1.84-8.12 6.91-6.95 4.83 1.11.59 8.17 4.57 8.51 3.72.3 4.93-8.87 9.82-6.26 3.89 2.08-1.86 6.94-2.11 10.78 4.13-1.73 6.02-6.53 9.91-8.98 3.19-2 6.92-2.09 10.18-1.86.49 4.21-2.63 9.64-5.54 12.63-2.04 2.09-11.21 4.91-7.31 8.04 1.53 1.23 12.48-2.12 7.56 4.95-3.45 4.97-14.1 3.34-18.93 3.8-3.05.3-13.92.86-15.68 4.32-2.56 5.02 7.11 3.31 9.52 5.31 9.01 7.41-17.93 7.64-21.18 8.29-2.98.6-12.76 3.04-10.54 7.1 1.99 3.62 13.16 1.42 16.29.95 2.9-.42 13.23-2.42 7.74 4.12-1.47 1.75-13.54 2.76-6.79 6.39 1.43.76 12.64-.08 5.49 5.26-3.19 2.39-9.04-.47-12.72.81-7.69 2.7 0 4.63-.54 8.92-.61 4.76-7.34 2.4-10.29 1.37-10.43-3.57-21.69-10.5-33.23-7.31-10.42 2.88-30.05 13.95-31.19 17.28.28-10.21 6-9.1 11.29-12.69 6.22-4.21 11.84-9.15 16.79-14.88 9.91-11.41 16.99-25.26 21.39-39.71z"/></g><g><path class="st0" d="M227.83 201.02c-1.4-9.94 1.49-19.12 3.34-28.71 1.69-8.8 4.58-17.36 6.27-26.12.82-4.23 2.23-18.43-5.85-11.96-2.24 1.8-4.98 11.27-6.99 4.9-1.37-4.35 1.32-10.08-1.01-14.35-3.35-6.2-6.8.25-6.65 4.36.18 5.02 2.6 11.15.88 15.94-6.66-3.26-1.8 10.17-1.29 13.95 1.04 7.65 3.39 15.14 3.7 22.96-9.5-2.73-8.47-26.2-8.92-34.23-.43-7.72 1.04-19.4-3.72-26.17-3.52-5-3.69 1.41-6.98 1.03-2.41-.28-3.49-5.34-7.07-3.85-3.72 1.54-2.68 8.43-2.69 11.54 0 3.78-.25 7.2-1.36 10.84-4.44.78-5.23-8.57-5.51-11.51-.36-4.03-.52-7.31-3.79-9.78-3.6-2.73-4.3-2.54-6.39.96-1.89 3.1-3.23 2.63-5.67-.6-.97-1.28-.46-2.66-2.29-3.14-2.32-.62-1.95 1.29-3.4 2.03-3.42 1.77-4.37-1.77-7.58-3.11-8.86-3.68-4.97 10.94-2.8 14.72 1.86 3.28 6.77 5.91 7.94 9.31 2.3 6.75-5.42 1.97-7.17 3.22-4.53 3.27 16.55 13.53 16.46 18.02-1.43.21-2.99.48-4.4.2-1.56-.32-3.29-2.33-4.99-1.7-4.06 1.54 1.08 7.64 2.8 9.46 6.83 7.19 16.35 11.09 24.52 16.3 5.35 3.41 12.94 6.26 17.48 10.78 2.93 2.91.49 4.25-3.13 3.97-6.14-.48-13.18-1.97-19.21-3.37-4.2-.98-18.73-6.54-20.63-.48-.92 2.9 2.17 7.37 4.08 9.35 2.91 3.02 7.62 3.76 10.84 6.42-1.16 2.2-3.01 5.72.32 6.65 2.73.77 7.79-2.59 10.24-3.64 8.97-3.9 16.82-6.72 26.79-7.57 8.41-.73 12.1 3.16 17.61 9.6 1.35 1.56 11.39 16.1 13.57 14.83.08-.04.16-.08.24-.11 1.96-.75-1.82-6.97-2.41-7.69-1.93-2.36-3.81-4.69-5.89-6.95-4.31-4.69-8.36-9.68-9.29-16.3z"/></g><path class="st1" d="M326.26 84.23c-.76-15.14-24.41 8.86-27.78 7.61-4.15-1.57.68-8.22-5.93-6.49-5.24 1.37-6.82 10.55-9.08 14.68-3.64 6.6-7.11 12.63-9.74 19.72-1.08 2.9-2.96 9.18-6.51 7.54-11.2-5.14 12.43-34.26 16.18-38.21 4.69-4.94 9.34-9.95 13.74-15.17 3.09-3.63 4.31-6.26-1.51-6.53 1.34-1.98 3.75-2.38 5.56-3.98 2.17-1.9 4.45-5.17 5.88-7.72 2.09-3.68 2.56-10.32-3.37-9.5-5.69.81-8.01 11.61-13.39 12.52-7.75 1.31-.89-8.35 1.36-10.73 2.77-2.88 7.82-6.74 6.37-10.79-2.71-7.57-5.96-.24-8.76 1.53-9.44 6-6.96-12.2-6.84-16.09.12-4.24-12.54-5.84-11.03 1.19.83 3.88 3.2 12.61-3.73 11.72-2.5-.32-3.2-3.96-5.36-3.42-2.69.68-2.51 6.84-2.57 9-.2 6.14 3.81 15.86.93 21.38-6.92 1.2-5.67-9.2-9.73-11.27-4.89-2.51-6.42 12.36-6.75 15.81-1.35 14.03 7.27 27.04 9.55 40.53.68 3.94 5.59 28.17-2.79 22.29-6.11-4.28-7-16.98-8.28-23.72-.78-3.93-2.04-8-2.27-12.01-.17-3.09.69-6.7-.13-9.73-1.67-6.29-15.2-20.37-14.04-5.94.62 7.87.85 2.99-5.21 2.92-6.04-.05-5.61 6.46-2.23 9.81 2.37 2.35 5.09 3.46 7.26 6.1 2.26 2.71 4.4 6.01 6.12 9.06 2.41 4.26 5.13 13.78-3.09 10.68-3.99-1.51-12.3-13.71-17.09-9.62-5.3 4.54 7.72 11.04 9.76 13.49 7.65 9.23 16.31 19.54 22.33 29.82 1.94 3.31 4.48 6.22 5.44 10.04 1.15 4.58-.06 9.45-.12 14.17-.05 3.1-.22 6.18-.42 9.26-.15 1.26-.33 3.27-.62 6.7-9.05 105.57-36.64 185.47-81.99 237.46l3.36 2.71c45.94-52.68 73.87-133.36 82.99-239.83.32-3.78.6-7.04.77-7.65.43-1.73.92-3.44 1.48-5.1 3.25-9.72 7.84-22.48 15.49-29.51 7.34-6.73 18.16-6.85 26.6-11.32 3.21-1.69 7.41-3.53 9.95-6.27 5.12-5.57-1.75-5.01-6.08-4.63-7.53.64-5.27-2.79-.76-6.69 4.18-3.6 6.33-4.07 11.32-4.89 2.26-.36 11.22-2.68 8.55-6.8-2.61-4.03-12.08 2.44-14.76-2.29-3.78-6.69 21.47-11.82 20.97-21.84z"/></svg>